<svg version="1.1" id="Layer_1" xmlns="http://www.w3.org/2000/svg"
  xmlns:xlink="http://www.w3.org/1999/xlink" viewBox="-30.56 -30.56 570.41 570.41"
  xml:space="preserve" fill="#000000" stroke="#000000" stroke-width="0.00509287"><g id="SVGRepo_bgCarrier" stroke-width="0"></g><g id="SVGRepo_tracerCarrier" stroke-linecap="round" stroke-linejoin="round" stroke="#02006b" stroke-width="36.66866399999999"> <circle style="fill:#0703fc;" cx="254.644" cy="254.644" r="254.644"></circle> <rect x="76.97" y="93.584" style="fill:#71D456;" width="94.94" height="335.004"></rect> <g> <rect x="76.97" y="127.491" style="fill:#FCFCFD;" width="94.94" height="15.258"></rect> <rect x="76.97" y="162.755" style="fill:#FCFCFD;" width="94.94" height="15.258"></rect> <rect x="76.97" y="379.762" style="fill:#FCFCFD;" width="94.94" height="15.258"></rect> </g> <rect x="182.421" y="93.584" style="fill:#e2bd6f;" width="94.94" height="335.004"></rect> <g> <rect x="182.421" y="127.491" style="fill:#FCFCFD;" width="94.94" height="15.258"></rect> <rect x="182.421" y="162.755" style="fill:#FCFCFD;" width="94.94" height="15.258"></rect> <rect x="182.421" y="379.762" style="fill:#FCFCFD;" width="94.94" height="15.258"></rect> </g> <rect x="325.161" y="87.113" transform="matrix(-0.9699 0.2434 -0.2434 -0.9699 796.0264 410.8646)" style="fill:#F0582F;" width="94.938" height="334.996"></rect> <g> <rect x="294.316" y="124.787" transform="matrix(-0.9699 0.2434 -0.2434 -0.9699 705.5225 177.6575)" style="fill:#FCFCFD;" width="94.938" height="15.258"></rect> <rect x="302.827" y="159.049" transform="matrix(-0.9699 0.2434 -0.2434 -0.9699 730.6281 243.0786)" style="fill:#FCFCFD;" width="94.938" height="15.258"></rect> <rect x="355.683" y="369.246" transform="matrix(-0.9699 0.2434 -0.2434 -0.9699 885.9127 644.2859)" style="fill:#FCFCFD;" width="94.938" height="15.258"></rect> </g> </g><g id="SVGRepo_iconCarrier"> <circle style="fill:#0703fc;" cx="254.644" cy="254.644" r="254.644"></circle> <rect x="76.97" y="93.584" style="fill:#71D456;" width="94.94" height="335.004"></rect> <g> <rect x="76.97" y="127.491" style="fill:#FCFCFD;" width="94.94" height="15.258"></rect> <rect x="76.97" y="162.755" style="fill:#FCFCFD;" width="94.94" height="15.258"></rect> <rect x="76.97" y="379.762" style="fill:#FCFCFD;" width="94.94" height="15.258"></rect> </g> <rect x="182.421" y="93.584" style="fill:#e2bd6f;" width="94.94" height="335.004"></rect> <g> <rect x="182.421" y="127.491" style="fill:#FCFCFD;" width="94.94" height="15.258"></rect> <rect x="182.421" y="162.755" style="fill:#FCFCFD;" width="94.94" height="15.258"></rect> <rect x="182.421" y="379.762" style="fill:#FCFCFD;" width="94.94" height="15.258"></rect> </g> <rect x="325.161" y="87.113" transform="matrix(-0.9699 0.2434 -0.2434 -0.9699 796.0264 410.8646)" style="fill:#F0582F;" width="94.938" height="334.996"></rect> <g> <rect x="294.316" y="124.787" transform="matrix(-0.9699 0.2434 -0.2434 -0.9699 705.5225 177.6575)" style="fill:#FCFCFD;" width="94.938" height="15.258"></rect> <rect x="302.827" y="159.049" transform="matrix(-0.9699 0.2434 -0.2434 -0.9699 730.6281 243.0786)" style="fill:#FCFCFD;" width="94.938" height="15.258"></rect> <rect x="355.683" y="369.246" transform="matrix(-0.9699 0.2434 -0.2434 -0.9699 885.9127 644.2859)" style="fill:#FCFCFD;" width="94.938" height="15.258"></rect> </g> </g></svg>
